<svg xmlns="http://www.w3.org/2000/svg" viewBox="104.91 119.88 855.09 306.06"><path d="m362.4804 424.43948c1.94148-1.46749 1.92405-1.54185-.88636-3.7828-2.30966-1.84165-2.86677-3.07492-2.86677-6.34613 0-5.61748.83314-6.6156 4.88725-5.85504 3.24039.6079 3.38548.50564 3.38548-2.38603 0-1.66163-.89832-4.49452-1.99626-6.29531-1.09795-1.80079-1.99795-4.73667-2-6.52417-.003-2.54086-.42415-3.25-1.9305-3.25-1.16246 0-2.55082-1.25097-3.5-3.15364-1.92317-3.85509-1.97236-5.27023-.23338-6.71345.73692-.61159 1.25611-2.51967 1.15376-4.24018-.16288-2.73789.29748-3.3447 3.68973-4.86346 4.09626-1.83395 3.83643-3.01132-.99149-4.49272-3.47301-1.06566-2.70888-5.91912.99931-6.3473 2.21414-.25566 2.74592-.87607 3-3.5.28173-2.90941.64393-3.21684 4.12777-3.50372 3.00285-.24728 3.58824-.59244 2.73939-1.61525-.78509-.94597-.66919-2.08763.4249-4.18553.82745-1.58661 1.50722-3.60251 1.51061-4.47976.003-.87726.89168-2.3964 1.97398-3.37587 1.3508-1.22245 1.70673-2.29011 1.13513-3.40499-1.36918-2.67051-.14246-4.12413 3.48038-4.12413 2.75 0 3.41667-.39024 3.41667-2 0-1.3214-.66667-2-1.96482-2-2.28514 0-4.25738-3.14717-3.9509-6.30461.1172-1.20746-.12696-2.98289-.54258-3.94539s-.49666-2.425-.18007-3.25c.63635-1.65832 4.63837-2.08972 4.63837-.5 0 2.03783 1.80452.91498 2.41064-1.5.45323-1.80579 1.29999-2.5 3.0494-2.5 3.10357 0 3.79807-1.19091 2.57324-4.41248-.91978-2.41919-.66918-2.73833 4.01343-5.11119 4.34596-2.20227 4.86194-2.77849 3.97388-4.43787-1.45254-2.71408-1.26487-5.11106.55787-7.12516 1.43873-1.58978 1.43448-1.96391-.048-4.22648-1.67449-2.5556-1.43214-10.66647.45378-15.18682.45893-1.1 1.09715-2.81631 1.41827-3.81401.38347-1.19141 1.35845-1.70624 2.84068-1.5 1.60029.22266 2.14433-.12236 1.87013-1.18599-1.34414-5.21406-1.26637-5.81665.83691-6.4842 2.43056-.77143 5.3927 1.14818 4.67158 3.0274-.36083.9403.32168.98004 2.95449.17201 1.88303-.57793 3.4237-1.42527 3.4237-1.88299s.6199-.83222 1.37756-.83222c.75765 0 1.97804-.72354 2.71197-1.60787 1.14844-1.3838.95646-1.88319-1.37756-3.58341-4.62146-3.3665-3.17665-9.55166 1.98983-8.51836 2.68637.53727 3.01334.26685 4.35857-3.60476 1.30593-3.75848 1.78524-4.18461 4.69698-4.17593 3.57056.0106 4.01252-.62585 1.74265-2.50967-1.69454-1.40634-2.01874-4-.5-4 .55 0 1-.45 1-1s-.81-1-1.8-1c-3.96758 0-5.92691-5.73564-2.28469-6.6881 1.83708-.48041 3.77138-4.95855 2.63336-6.09657-.30177-.30176-.54867-.02366-.54867.618 0 .64167-1.125 1.16667-2.5 1.16667-3.37535 0-3.31245-3.06827.15613-7.61581 3.0621-4.01462 6.63836-4.33123 7.16342-.63419.17575 1.2375.73825 2.25 1.25 2.25 1.46154 0 1.08785-2.62448-.56955-4-2.3292-1.93307-1.82537-5.7407 1.00501-7.59524 1.89307-1.24039 2.83674-1.36603 3.863-.51431 1.09382.9078 1.26836.65816.89723-1.28329-.34161-1.78702.0685-2.5783 1.58584-3.0599 2.01945-.64094 2.02109-.67509.1232-2.57298-1.05787-1.05787-2.22769-3.13578-2.5996-4.61756-.84653-3.37288 2.3517-6.31912 6.9861-6.43567 1.72657-.0434 2.57672-.30592 1.88922-.58333-1.77802-.71745-1.54823-3.28605.35946-4.0181 1.47928-.56765 1.47928-.69046 0-1.5183-1.89793-1.06213-2.10574-3.90504-.40946-5.60132 1.5425-1.5425 5.0575-1.5425 6.6 0 .80282.80282 1.2.83823 1.2.10699 0-.60116-.675-1.35203-1.5-1.66862-1.81572-.69675-1.99345-4.25895-.25-5.01065.6875-.29642-1-.34936-3.75-.11764-10.62731.89547-36.13575 1.52084-36.75549.9011-1.09107-1.09108 5.0752-12.21918 7.13271-12.87221 1.05817-.33585 2.18155-1.63697 2.49638-2.89138.31484-1.25441 1.71733-2.89348 3.11665-3.64237 3.80744-2.03768 7.764-7.79711 7.99741-11.64154.16853-2.7759-.26869-3.62888-2.37836-4.64002-1.42166-.68139-2.74652-2.13546-2.94414-3.23127-.19761-1.09582-.75955-2.41383-1.24876-2.92893-.5054-.53214-7.91206-.80654-17.15294-.63547-8.9449.16559-33.36346.64459-54.26346 1.06446-20.9.41986-86.50813.70583-145.79585.63547l-107.79586-.12792.51909 3.5c.2855 1.925.7633 5.525 1.06177 8s2.81687 21.825 5.59643 43l5.05375 38.5-1.0809 22.5c-.94868 19.74774-2.22399 50.49531-4.63504 111.75-.4935 12.5378-.3709 17.25.44882 17.25.62028 0 1.12779.8577 1.12779 1.906 0 1.36402 1.27454 2.34028 4.48224 3.43325 2.64054.89972 4.71923 1.14379 5.05901.594.84402-1.36565 6.45875-1.14147 6.45875.25788 0 .65512.6257.33543 1.39045-.71043 1.20178-1.64352 1.75095-1.7373 4.04706-.69113 1.46113.66574 3.93728 1.21043 5.50255 1.21043 1.67266 0 3.09621.65213 3.45295 1.58179.33385.86998.60699 12.78483.60699 26.47744v24.89565l18.25.29657c10.0375.16311 58.75.38394 108.25.49075 7.76021.0167 14.8679.0302 21.37793.0396 59.40534.0861 69.04426-.16471 70.60247-1.34237z" fill="#ce2a2b"/><path d="m157.42822 323.23433c4.36053-8.10388 8.97867-16.42183 10.26255-18.48433l2.33432-3.75h33.42844c19.8474 0 33.66509.38291 34.01093.9425.32038.51838 1.93742 7.83088 3.59344 16.25 1.65601 8.41913 3.22902 16.32 3.49557 17.5575l.48463 2.25h27.98095c15.38952 0 27.98095-.30608 27.98095-.68018 0-2.82392 9.39671-53.05413 10.08283-53.89787 1.04127-1.28049 10.89081-1.78406 12.62818-.64563.66605.43643 5.29115 11.8028 10.278 25.2586 4.98684 13.45579 9.55898 25.70258 10.16031 27.21508l1.09332 2.75h13.37868c7.35827 0 13.37868-.35204 13.37868-.7823 0-.43027-4.95-12.4125-11-26.62717-6.05-14.21468-11-26.65274-11-27.64015 0-1.19204 1.26005-2.20322 3.75-3.00935 20.78717-6.72989 33.02528-24.00151 32.0885-45.28645-.54695-12.42764-5.97588-21.47752-16.14479-26.91297-4.0516-2.16565-5.26676-2.25183-35.85996-2.54316-29.7829-.28361-31.6986-.19439-32.21016 1.5-.29915.99085-5.30008 29.02655-11.11318 62.30155s-10.80031 61.6625-11.08269 63.08333c-.98844 4.97345-3.23572 2.88427-4.84053-4.5-1.61069-7.41128-32.19366-151.05005-33.17939-155.83333l-.56671-2.75-13.67055.005-13.67054.005-32.64251 57.74533c-29.47962 52.1501-61.40508 108.55838-62.53717 110.49533-.24109.4125 6.6757.74295 15.37066.73433l15.80902-.0157 7.92822-14.73433z" fill="#fff"/><path d="m227.84972 271.13374c1.10457-.7161.50173-5.30312-3.31903-25.25439-2.56781-13.40864-5.00859-25.25219-5.42395-26.31899-.59457-1.52709-3.21337 2.51413-12.31241 19-14.20333 25.73394-17.79433 32.36993-17.79433 32.88308 0 .82587 37.55998.52645 38.84972-.3097z" fill="#ce2a2b"/><path d="m345.03498 262.00679c4.25959-1.18336 10.28993-7.12068 12.41619-12.22467 2.02877-4.86994 1.97243-12.25643-.12049-15.79946-2.85141-4.82707-5.32656-5.48266-20.69939-5.48266h-14.07666l-2.59373 15c-1.42655 8.25-2.85921 16.0125-3.18369 17.25-.58895 2.2461-.56803 2.24999 12.06641 2.24442 6.96101-.003 14.24712-.4475 16.19136-.98763z" fill="#ce2a2b"/><path d="m417.01993 424.24845c-9.59279-4.81959-10.96533-18.37205-2.64758-26.14211 3.53473-3.30197 11.65032-4.08747 16.30913-1.57854 10.36499 5.58191 10.43058 22.26786.10836 27.56737-4.61904 2.37146-9.25224 2.42303-13.76991.15328z" fill="#272e76"/><path d="m431.57639 419.7494c8.63269-7.91127 3.78454-21.77317-7.67038-21.93126-5.01143-.0692-8.70796 2.40629-11.25914 7.53988-5.98168 12.03658 9.03849 23.45583 18.92952 14.39138z" fill="#272e76"/><path d="m419.30236 420.03477c-1.2087-.51237-2.8962-2.28245-3.75-3.93352-3.83196-7.41019.3971-16.10125 7.83485-16.10125 6.25234 0 9.61279 3.84234 9.61279 10.99129 0 7.02695-7.21596 11.79108-13.69764 9.04348z" fill="#272e76"/><path d="m428.92742 415.36514c1.13992-1.44917 2.07258-3.63848 2.07258-4.86514 0-3.80908-3.69873-7.5-7.51588-7.5-4.05767 0-6.48412 2.88986-6.48412 7.72251 0 6.81364 7.82414 9.85911 11.92742 4.64263z" fill="#fff"/><path d="m583.25 423.89471c-4.67549-2.31433-5.38974-4.55329-2.33456-7.31818 1.78787-1.61801 2.08326-1.62349 4.43536-.0823 2.73782 1.79389 7.76545 1.70566 8.37299-.14692.21108-.64367-1.84694-1.89174-4.66021-2.82616-9.00503-2.99099-11.75701-9.98154-6.1405-15.59804 3.37357-3.37357 8.76175-3.91726 14.60904-1.47411 6.41637 2.68093 3.54493 8.83097-3.16208 6.77252-3.54496-1.08797-6.37004-.7309-6.37004.80513 0 .44696 2.2443 1.55808 4.98732 2.46917 5.69043 1.89006 9.01268 5.45618 9.01268 9.67425 0 8.3708-9.52063 12.29313-18.75 7.72467z" fill="#272e76"/><path d="m597.01422 421.18957c2.75961-2.23459 2.93729-6.73092.36078-9.1296-1.03125-.96008-4.03752-2.5381-6.68061-3.50672-4.48256-1.64275-4.78506-1.97262-4.5-4.90719.30535-3.14339.31048-3.14596 6.05561-3.03007 5.79209.11684 7.54026-.91301 3.64725-2.1486-3.39842-1.07862-8.83086-.76738-10.47889.60037-4.93004 4.09156-3.44729 9.02325 3.48035 11.57579 7.80421 2.87553 9.75337 5.56151 6.44019 8.87469-1.6578 1.65781-5.37499 1.66413-11.3389.0193l-2.5-.68949 2.36078 2.07597c3.04233 2.67529 10.00396 2.81583 13.15344.26554z" fill="#272e76"/><path d="m634.07108 424.24845c-4.65266-2.37246-7.03928-5.92595-7.93344-11.8123-.6169-4.06112-.88539-4.53535-1.5146-2.67518-.97431 2.88041-5.50935 5.23903-10.07338 5.23903h-3.54966v5 5h-3.5-3.5v-15-15h6.35078c3.49292 0 7.7816.49879 9.53038 1.10842 3.19867 1.11506 6.11748 5.21253 6.12039 8.59192.00095 1.09381.68732.43473 1.75-1.68041 2.4508-4.878 7.52259-8.01993 12.94599-8.01993 8.36349 0 13.96105 5.1425 14.92826 13.71466 1.38206 12.24887-10.7916 21.02203-21.55472 15.53379z" fill="#272e76"/><path d="m609 417.5v-5.5h5c5.93431 0 9-2.38443 9-7 0-5.01611-2.97584-7-10.5-7h-6.5v12.5c0 10.44444.24667 12.5 1.5 12.5 1.15152 0 1.5-1.27778 1.5-5.5z" fill="#272e76"/><path d="m609 405v-5h4.3c4.93918 0 6.7 1.31405 6.7 5s-1.76082 5-6.7 5h-4.3z" fill="#272e76"/><path d="m617.08981 406.39179c1.13401-1.3664 1.0485-1.81748-.56869-3-3.30214-2.41459-5.52112-1.76823-5.52112 1.60821 0 2.49213.40249 3 2.37756 3 1.30765 0 2.97816-.7237 3.71225-1.60821z" fill="#fff"/><path d="m647.03273 421.48307c7.51936-3.88841 7.96376-16.86998.75048-21.92237-3.62535-2.53929-11.07188-2.03012-14.67723 1.00358-6.84381 5.75868-5.4489 18.28032 2.39402 21.49036 3.22034 1.31806 8.37236 1.06272 11.53273-.57157z" fill="#272e76"/><path d="m636.30255 419.80296c-3.23607-1.56349-5.62662-7.26197-4.82933-11.51191 1.2891-6.8715 7.91639-10.28398 13.84252-7.12771 3.52436 1.87709 4.61865 4.03242 4.65246 9.16358.054 8.18952-6.67331 12.85434-13.66565 9.47604z" fill="#272e76"/><path d="m645.92742 415.36514c1.13992-1.44917 2.07258-3.63848 2.07258-4.86514s-.93266-3.41597-2.07258-4.86514c-4.1159-5.23252-11.92742-2.16973-11.92742 4.67658 0 7.04631 7.7703 10.33862 11.92742 5.0537z" fill="#fff"/><path d="m768.01993 424.24845c-5.06846-2.54649-8.01993-7.49484-8.01993-13.44599 0-9.11177 4.94773-14.91236 13.24231-15.52493 9.91597-.73231 16.18626 5.19743 16.18626 15.30715 0 11.65831-11.18791 18.79884-21.40864 13.66377z" fill="#272e76"/><path d="m780.91481 421.54405c5.29659-2.73897 7.65406-11.60952 4.6363-17.44521-2.0771-4.01667-5.81179-6.09884-10.9392-6.09884-10.44795 0-16.00812 12.14141-9.40465 20.53636 3.53998 4.50035 10.3131 5.79727 15.70755 3.00769z" fill="#272e76"/><path d="m769.88805 419.54978c-3.4156-1.92097-5.29973-6.60701-4.54997-11.3163 1.2647-7.94367 10.54418-11.09714 15.97483-5.42876 3.57692 3.7335 3.78792 10.81681.43709 14.67328-2.76174 3.17849-8.20404 4.12903-11.86195 2.07178z" fill="#272e76"/><path d="m779.54545 415.54545c2.9997-2.99969 3.13134-6.41533.38197-9.91059-2.71439-3.45079-8.09273-3.66464-10.37072-.41235-5.4722 7.81265 3.36558 16.94612 9.98875 10.32294z" fill="#fff"/><path d="m440.22327 410.25.27673-14.75 10.22224-.28468 10.22225-.28467.65454 2.60789c.9144 3.64327-.17627 4.3128-7.58899 4.65866-5.16582.24102-6.55603.64978-6.81381 2.00343-.27259 1.4314.67567 1.74802 5.98995 2 6.30011.29872 6.31449.30632 6.6235 3.5001l.30969 3.20074-6.30969.29926-6.30968.29927-.2999 5.75-.29991 5.75h-3.47683-3.47683z" fill="#272e76"/><path d="m445 417v-6h5.94098c8.09149 0 8.78575-1.82374.83808-2.20153l-6.27906-.29847-.3075-4.25-.3075-4.25h7.0575c4.03833 0 7.0575-.4278 7.0575-1 0-.58824-3.5-1-8.5-1h-8.5v12.5c0 10.44444.24667 12.5 1.5 12.5 1.16667 0 1.5-1.33333 1.5-6z" fill="#272e76"/><path d="m483 413.56037v-11.56037h-4.06336c-3.98191 0-4.05708-.0651-3.75-3.25l.31336-3.25 10.354-.28613c11.08428-.30631 13.47702.4698 12.94426 4.19862-.23143 1.61977-1.1313 2.15662-4.01606 2.39596l-3.71779.30844-.28221 11.19156-.2822 11.19155-3.75.31037-3.75.31036z" fill="#272e76"/><path d="m488.21725 411.75.28275-11.25 3.75-.31037c7.37065-.61002 3.58328-2.18963-5.25-2.18963s-12.62065 1.57961-5.25 2.18963l3.75.31037.28275 11.25c.15551 6.1875.70328 11.25 1.21725 11.25s1.06174-5.0625 1.21725-11.25z" fill="#272e76"/><path d="m500.22327 410.25.27673-14.75 8.3723.0415c7.87974.0391 8.51217.20414 10.75 2.80576 3.18877 3.70717 3.13428 8.60013-.13912 12.49033l-2.51681 2.99107 2.11559 3.58566c1.16358 1.97211 2.45869 3.58566 2.87803 3.58566.41935 0 1.68339-2.40658 2.80899-5.34796 6.98431-18.25109 8.2866-20.65202 11.20189-20.65202 1.53133 0 3.22244.5625 3.75801 1.25s3.17817 6.85427 5.87244 13.70393l4.89868 12.45393.5-13.45393.5-13.45393 3.61365-.30224c3.52466-.29479 3.74649-.0972 9.00809 8.02531l5.39443 8.32754-.35705-7.07073c-.39298-7.78199.76-9.91279 5.03584-9.30664 2.27313.32224 2.30887.53093 2.58177 15.07676l.27674 14.75h-3.9557c-3.8521 0-4.08194-.20282-8.77673-7.74486l-4.82104-7.74486-.29096 7.68359-.29096 7.68358-7.85595.0173c-7.76639.0171-7.86991-.0164-9.08036-2.93873-1.0979-2.65059-1.68582-2.95602-5.68995-2.95602-4.04341 0-4.57259.28359-5.59792 3-1.12347 2.9764-1.19309 3-8.85073 3h-7.71835l-2.72134-5c-1.49673-2.75-3.09982-5-3.56241-5s-.84107 2.25-.84107 5v5h-3.52673-3.52674z" fill="#272e76"/><path d="m505.2001 417.25c.25991-4.98337.56656-5.75 2.2999-5.75 1.37504 0 3.05939 1.79676 5.39028 5.75 1.86465 3.1625 4.04491 5.75 4.84502 5.75 1.10132 0 .82429-1.07579-1.14028-4.42807-3.1305-5.34179-3.21965-6.70075-.54904-8.36857 3.00802-1.87854 3.95921-5.22177 2.37062-8.33218-1.69793-3.32448-3.18055-3.87118-10.49839-3.87118h-5.91821v12.5c0 10.25325.26064 12.5 1.4501 12.5 1.06389 0 1.52996-1.53138 1.75-5.75z" fill="#272e76"/><path d="m505 405v-5h4.3c4.93918 0 6.7 1.31405 6.7 5s-1.76082 5-6.7 5h-4.3z" fill="#272e76"/><path d="m513.08981 406.39179c1.13401-1.3664 1.0485-1.81748-.56869-3-2.47386-1.80894-4.43964-1.76771-5.15949.10821-1.50275 3.91608 2.99404 6.18622 5.72818 2.89179z" fill="#fff"/><path d="m528.5 420c1.48331-2.86841 1.83762-3 8.0777-3 6.35242 0 6.55421.0799 7.57214 3 .5752 1.65 1.68283 3 2.46141 3 1.20525 0 1.2165-.48292.0758-3.25-.73691-1.7875-3.06497-7.43163-5.17347-12.5425-2.62482-6.36244-4.29407-9.20028-5.2939-9-1.09584.21949-11.21968 22.25931-11.21968 24.42539 0 1.49679 2.23318-.18313 3.5-2.63289z" fill="#272e76"/><path d="m532 413.07773c0-3.19689 3.12826-10.20061 4.37522-9.79548 1.54349.50147 3.7146 5.17984 3.93938 8.48869.1719 2.53029-.12415 2.75146-4.0646 3.03656-3.70987.26842-4.25.0486-4.25-1.72977z" fill="#272e76"/><path d="m538 411.58179c0-1.52442-1.36169-3.47629-2.10478-3.01703-1.46276.90403-1.01714 3.43524.60478 3.43524.825 0 1.5-.1882 1.5-.41821z" fill="#fff"/><path d="m556.42953 413.95373c.0968-11.57377 1.49184-11.57144 8.94079.0149 3.98651 6.20075 6.40547 9.03134 7.718 9.03134 1.78028 0 1.91168-.85916 1.91168-12.5 0-10.44444-.24667-12.5-1.5-12.5-1.22222 0-1.5 1.66667-1.5 9 0 6.958-.31114 9-1.37132 9-.75423 0-4.01673-4.04294-7.25-8.98431-8.39113-12.82404-9.37868-12.44838-9.37868 3.56767 0 9.2213.31515 12.47829 1.17953 12.19016.77382-.25794 1.20378-3.29161 1.25-8.81976z" fill="#272e76"/><path d="m657.4382 423.69955c-.27447-.71525-.37284-7.35275-.21861-14.75l.28041-13.44955h8.17165c7.27271 0 8.45529.26669 10.75 2.42431 3.52821 3.31743 3.63847 10.10648.21966 13.52529l-2.3587 2.3587 2.8587 4.5929c1.57228 2.52609 2.85869 5.04423 2.85869 5.59585s-1.9125.99685-4.25.98939c-4.12859-.0132-4.34172-.17743-7.46093-5.75l-3.21094-5.73644-.03906 5.75-.03907 5.75h-3.53138c-1.97569 0-3.75123-.5729-4.03042-1.30045z" fill="#272e76"/><path d="m662 418.12244c0-5.04315 1.60114-7.61059 4.12325-6.61166.75721.29991 2.74462 2.89245 4.41646 5.76121 1.67184 2.86875 3.86043 5.37397 4.86353 5.56715 1.5039.28963 1.27767-.44257-1.28971-4.17413-3.12147-4.5369-3.98401-7.66501-2.11353-7.66501 1.80412 0 5-3.95365 5-6.18555 0-1.20205-.97844-3.22705-2.17431-4.5-1.82836-1.94619-3.18081-2.31445-8.5-2.31445h-6.32569v12.5c0 7.66667.38667 12.5 1 12.5.55 0 1-2.1949 1-4.87756z" fill="#272e76"/><path d="m662.39816 408.5952c-.29649-.77265-.39487-2.91015-.21862-4.75.30927-3.22838.48621-3.35584 5.067-3.64985 4.25964-.2734 4.86594-.0426 5.91051 2.25.8747 1.91975.88089 3.17597.0249 5.05465-.97222 2.1338-1.80597 2.5-5.6919 2.5-2.98734 0-4.73818-.48304-5.09189-1.4048z" fill="#272e76"/><path d="m669.41821 407.39301c3.47972-1.33529 1.22251-5.39301-3-5.39301-.90912 0-1.41821 1.07689-1.41821 3 0 3.03331 1.14024 3.65089 4.41821 2.39301z" fill="#fff"/><path d="m687.78275 413.75-.28275-11.25-3.8086-.31386c-3.62504-.29873-3.79372-.46741-3.5-3.5l.3086-3.18614h11 11l.3086 3.18614c.29372 3.03259.12504 3.20127-3.5 3.5l-3.8086.31386-.28275 11.25-.28275 11.25h-3.4345-3.4345z" fill="#272e76"/><path d="m693 411.5v-11.5h4c2.2 0 4-.45 4-1 0-.59649-3.83333-1-9.5-1s-9.5.40351-9.5 1c0 .55 1.8 1 4 1h4v11.5c0 9.55556.25362 11.5 1.5 11.5s1.5-1.94444 1.5-11.5z" fill="#272e76"/><path d="m700.99628 423.25c-.006-2.92057 10.19221-27.3851 11.64893-27.9441.74759-.28687 2.38584-.26394 3.64055.051 1.83604.46082 3.29938 3.0923 7.49776 13.48303 2.86906 7.10075 5.21648 13.64163 5.21648 14.53528 0 1.18798-.93408 1.62482-3.47432 1.62482-2.84894 0-3.75356-.54-5.02568-3-1.36521-2.64003-2.0765-3-5.92786-3-3.9637 0-4.47513.28296-5.4223 3-.89729 2.57399-1.5502 3-4.59782 3-2.71479 0-3.5529-.41248-3.55574-1.75z" fill="#272e76"/><path d="m707.14984 420c1.02579-2.94256 1.17797-3 7.94799-3 5.02064 0 6.90217.3568 6.90217 1.30887 0 1.88361 2.70753 5.31693 3.53802 4.48644 1.20616-1.20616-8.85307-24.75775-10.58287-24.77759-1.04657-.012-3.17663 4.01405-6.60397 12.48228-3.64558 9.00745-4.66627 12.5-3.65313 12.5.7733 0 1.8766-1.35 2.45179-3z" fill="#272e76"/><path d="m710.38959 413.57287c-.79461-2.07073 3.31619-10.83761 4.84311-10.32864 1.51932.50644 5.03038 9.52108 4.21939 10.83328-.93957 1.52027-8.44587 1.10228-9.0625-.50464z" fill="#272e76"/><path d="m716 410c-.5887-1.1-1.22705-2-1.41855-2s-.58354.9-.8712 2c-.39039 1.49285-.0307 2 1.41855 2 1.63169 0 1.77073-.3192.8712-2z" fill="#fff"/><path d="m734 413.56037v-11.56037h-4.06336c-3.98191 0-4.05708-.0651-3.75-3.25l.31336-3.25 11.22279-.2825c11.20737-.28211 11.22365-.27909 11.84415 2.19317.86745 3.4562-.14318 4.58933-4.09321 4.58933h-3.40823l-.28275 11.25-.28275 11.25-3.75.31037-3.75.31036z" fill="#272e76"/><path d="m739 411.5v-11.5h4c2.2 0 4-.45 4-1 0-.59259-3.66667-1-9-1s-9 .40741-9 1c0 .55 1.575 1 3.5 1h3.5v10.83333c0 5.95834.3 11.13334.66667 11.5 1.86481 1.86482 2.33333-.31044 2.33333-10.83333z" fill="#272e76"/><path d="m751.22327 410.25.27673-14.75h3 3l.27673 14.75.27674 14.75h-3.55347-3.55347z" fill="#272e76"/><path d="m756 410.5c0-10.44444-.24667-12.5-1.5-12.5s-1.5 2.05556-1.5 12.5.24667 12.5 1.5 12.5 1.5-2.05556 1.5-12.5z" fill="#272e76"/><path d="m791.22327 410.25.27673-14.75 3.19297-.30911c2.99272-.28971 3.53865.20722 8.70481 7.92361l5.51184 8.23271.29519-7.92361c.28645-7.68906.37172-7.9325 2.88079-8.22416 4.43849-.51594 4.99893 1.387 4.6942 15.93893l-.2798 13.36163-4 .27516-4 .27516-5.25-8.25513-5.25-8.25513v8.22997 8.22997h-3.52673-3.52674z" fill="#272e76"/><path d="m796 414c0-11.69302 1.19124-11.72748 8.74316-.25292 3.16626 4.8109 6.54434 8.89389 7.50684 9.07333 1.59118.29663 1.75-.81488 1.75-12.24709 0-10.50962-.2462-12.57332-1.5-12.57332-1.22222 0-1.5 1.66667-1.5 9 0 6.5417-.34143 8.99571-1.25 8.98431-.6875-.009-3.8954-4.05863-7.12868-9-3.93735-6.01742-6.49664-8.98431-7.75-8.98431-1.72862 0-1.87132.95317-1.87132 12.5 0 10.44444.24667 12.5 1.5 12.5 1.22222 0 1.5-1.66667 1.5-9z" fill="#272e76"/><path d="m550.07334 388.27112c-6.13192-1.15358-9.16549-6.2899-5.50776-9.32554 1.29694-1.07637 2.05267-1.01159 4.40429.37755 1.56129.92228 4.00678 1.67687 5.43442 1.67687 4.26995 0 3.01047-2.68159-2.15429-4.58676-5.9996-2.21313-7.97708-3.89415-8.75674-7.44394-.72235-3.28883 1.56415-8.39447 4.45135-9.93966 4.51898-2.41848 16.05539-.0438 16.05539 3.30491 0 .70576-.62194 2.13374-1.38208 3.1733-1.26987 1.73665-1.71883 1.77896-5.53003.52116-2.79904-.92377-4.47717-1.03973-5.1603-.3566-1.31459 1.31459.40996 2.6924 5.37049 4.29069 5.05958 1.63019 7.70192 4.63576 7.70192 8.76064 0 4.62976-2.53543 8.05288-6.85281 9.25207-3.77188 1.04767-4.02533 1.05694-8.07385.29531z" fill="#ce2a2b"/><path d="m558.20612 385.11173c3.36439-1.27914 5.14663-5.05373 3.91534-8.29228-.69597-1.83053-2.42017-3.13245-5.80572-4.38383-6.4387-2.37989-7.47075-3.30082-7.1163-6.35002.28618-2.46193.57558-2.58005 6.05056-2.46961 6.36814.12846 7.3926-.84773 2.63147-2.50747-5.78262-2.01583-11.88147 1.00831-11.88147 5.89148 0 3.27646 2.21252 5.34264 7.5 7.0039 6.75858 2.12346 8.16662 4.49703 4.84501 8.16736-2.00769 2.21847-5.45347 2.34113-9.33792.33241-3.77189-1.95052-5.01174-.11129-1.28676 1.90881 3.18097 1.72507 7.10025 1.98643 10.48579.69925z" fill="#ce2a2b"/><path d="m599.64255 388.00301c-1.5716-.48814-3.7091-1.65825-4.75-2.60025-1.80111-1.62998-1.89255-1.60861-1.89255.44225 0 1.78144-.58567 2.15499-3.37868 2.15499-2.81128 0-3.58736-.50381-4.62132-3-1.11835-2.69994-1.68928-3-5.70818-3-4.04341 0-4.57259.28359-5.59792 3-.98315 2.60467-1.6306 3-4.91314 3-2.07942 0-3.78076-.44263-3.78076-.98363 0-1.49412 10.03198-26.33747 11.21233-27.76637.56791-.6875 2.09331-1.25 3.38979-1.25 2.65774 0 3.90699 2.13075 9.39426 16.0231l3.36651 8.52311 2.32517-2.32518c2.15999-2.15999 2.48259-2.21491 4.54106-.7731 3.77476 2.64394 10.95919 1.50596 7.50987-1.18953-.68144-.53252-2.79463-1.49257-4.69597-2.13344-8.31329-2.80212-10.63278-9.68904-5.11994-15.20188 3.43745-3.43746 9.12208-3.94455 14.67579-1.30914 3.88501 1.84356 4.24289 3.3143 1.42665 5.86296-1.70459 1.54264-2.38557 1.6166-4.98204.54111-3.06752-1.27061-6.04348-.84208-6.04348.87024 0 .52306 2.19708 1.68077 4.88239 2.57269 7.39263 2.45543 10.37731 7.09561 8.2177 12.77579-1.84152 4.84358-9.37737 7.65475-15.45754 5.76628z" fill="#ce2a2b"/><path d="m571.5 383c1.47675-2.85573 1.85688-3 7.90436-3 6.11608 0 6.39934.11188 7.59564 3 .68345 1.65 1.86909 3 2.63474 3 1.15398 0 1.11984-.64143-.1996-3.75-.87543-2.0625-3.18758-7.70969-5.1381-12.54931-2.55298-6.33441-3.98318-8.7152-5.1056-8.49904-.95207.18335-3.43448 4.95034-6.37531 12.24257-5.41526 13.42794-5.1484 12.55578-3.84181 12.55578.53588 0 1.67243-1.35 2.52568-3z" fill="#ce2a2b"/><path d="m575 376.02024c0-3.17026 3.09555-10.02024 4.52821-10.02024 1.50802 0 4.93563 9.44048 3.98568 10.97753-.34756.56236-2.40537 1.02247-4.57291 1.02247-3.26089 0-3.94098-.34165-3.94098-1.97976z" fill="#ce2a2b"/><path d="m580.60699 373.41821c-.33385-.86998-.61388-2.10748-.6223-2.75-.0204-1.55842-1.94951 1.46032-1.96938 3.08179-.008.6875.70783 1.25 1.59168 1.25 1.05452 0 1.39831-.5438 1-1.58179z" fill="#fff"/><path d="m610.36514 383.92742c5.10043-4.012 2.77222-9.94626-4.71312-12.01306-9.3995-2.59532-8.65716-9.73862.90009-8.66138 5.12866.57808 5.7453-1.12365.88273-2.43604-3.72954-1.0066-9.1101.70776-10.52626 3.35387-1.6229 3.03243.57633 7.40793 4.42721 8.80821 6.53915 2.3778 8.16286 3.57253 8.47414 6.23526.52804 4.51694-3.77492 5.70014-11.7163 3.22169-1.7792-.55528-2.20863-.43107-1.64767.47658 2.10056 3.39879 10.14305 3.98518 13.91918 1.01487z" fill="#ce2a2b"/><path d="m411 386.57181c0-.78551 2.44099-7.42301 5.42443-14.75l5.42443-13.32181h3.3242c3.31243 0 3.3425.0442 8.49683 12.5 6.42322 15.52214 6.5778 17 1.77809 17-3.04762 0-3.70053-.42601-4.59782-3-.94717-2.71704-1.4586-3-5.4223-3-3.85136 0-4.56265.35997-5.92786 3-1.27212 2.46-2.17674 3-5.02568 3-2.34398 0-3.47432-.46465-3.47432-1.42819z" fill="#ce2a2b"/><path d="m417.5 383c1.47675-2.85573 1.85688-3 7.90436-3 6.11608 0 6.39934.11188 7.59564 3 1.19144 2.87639 3 4.08516 3 2.00507 0-.54721-2.07182-6.17221-4.60404-12.5-3.26638-8.16235-5.08227-11.50323-6.25-11.49872-1.44687.006-5.02489 7.76623-10.71641 23.24365-1.09033 2.96502 1.41906 1.94343 3.07045-1.25z" fill="#ce2a2b"/><path d="m421.28139 374.75c.84209-5.03953 2.53675-8.75 3.99631-8.75 1.54773 0 5.19955 9.41877 4.24848 10.95764-.35432.5733-2.47654 1.04236-4.71604 1.04236-4.03859 0-4.06739-.0265-3.52875-3.25z" fill="#ce2a2b"/><path d="m426.28975 373c-.28766-1.1-.6797-2-.8712-2s-.82985.9-1.41855 2c-.89953 1.6808-.76049 2 .8712 2 1.44923 0 1.80894-.50715 1.41855-2z" fill="#fff"/><path d="m440.46271 386.76342c-.28795-.75038-.39735-7.41662-.24312-14.81387l.28041-13.44955h8.33819c7.89665 0 8.4659.14858 10.75 2.80576 3.23483 3.76322 3.1832 8.62405-.13346 12.56567l-2.54527 3.02489 2.54527 4.03197c3.59137 5.68909 3.35558 7.07247-1.20473 7.06821-3.52651-.003-3.92879-.33637-6.75-5.58891l-3-5.58542-.5 5.33891c-.48464 5.1749-.60005 5.34856-3.75688 5.65279-2.06611.19912-3.44828-.18494-3.78041-1.05045z" fill="#ce2a2b"/><path d="m445 380.55902c0-8.78641 3.75279-8.81514 8.46493-.0648 1.6307 3.02819 3.58168 5.5058 4.33549 5.5058.98567 0 .64448-1.29911-1.21493-4.62595-1.42202-2.5443-2.58549-4.98468-2.58549-5.4231s1.38136-2.17848 3.06968-3.86681c2.34802-2.34801 2.90795-3.60035 2.38172-5.32692-1.41464-4.64149-3.37326-5.75724-10.10639-5.75724h-6.34501l-.0833 5c-.25883 15.52983-.0167 20 1.08333 20 .55 0 1-2.44844 1-5.44098z" fill="#ce2a2b"/><path d="m445.39816 371.5952c-.29649-.77265-.39487-2.91015-.21862-4.75.30935-3.22921.4853-3.35577 5.07432-3.65015 4.36389-.27993 4.83775-.0843 5.77657 2.38498 1.61364 4.24421-.99069 7.41997-6.08487 7.41997-2.51975 0-4.20853-.5217-4.5474-1.4048z" fill="#ce2a2b"/><path d="m452.41821 370.39301c3.47972-1.33529 1.22251-5.39301-3-5.39301-.90912 0-1.41821 1.07689-1.41821 3 0 3.03331 1.14024 3.65089 4.41821 2.39301z" fill="#fff"/><path d="m464.22327 373.25.27673-14.75h3c2.72857 0 3.04524.34908 3.5 3.85824l.5 3.85823 3.79031-4.10823c3.03444-3.28897 4.48024-4.10824 7.25-4.10824 4.76295 0 4.50142 1.96166-1.14226 8.56765l-4.60194 5.38664 3.58988 4.8904c6.15479 8.3845 5.73579 8.5859 11.20783-5.38741 3.92852-10.03183 5.35409-12.6424 7.15394-13.10067 1.23627-.31477 2.85944-.33758 3.60703-.0507 1.45672.559 11.65514 25.02353 11.64893 27.9441-.003 1.33752-.84095 1.75-3.55574 1.75-3.04762 0-3.70053-.42601-4.59782-3-.94717-2.71704-1.4586-3-5.4223-3-3.85136 0-4.56265.35997-5.92786 3-1.49697 2.89481-1.79396 3-8.47064 3h-6.91929l-4.05503-5.66279-4.05504-5.66279v5.66279 5.66279h-3.52673-3.52674l.27674-14.75z" fill="#ce2a2b"/><path d="m469 380.43114c.69773-6.85693 2.688-6.8506 7.87917.025 2.30209 3.0491 4.90114 5.54382 5.77567 5.54382 1.78419 0 1.886.16986-4.87828-8.13878-2.07711-2.55129-3.77656-5.18224-3.77656-5.84651s1.83345-3.29067 4.07432-5.83645c2.44145-2.77363 3.59383-4.78884 2.87541-5.02831-.6594-.2198-2.97786 1.68155-5.15213 4.22523-5.11838 5.98799-6.7976 6.01884-6.7976.12486 0-3.33333-.38889-4.5-1.5-4.5-1.25386 0-1.5 2.06481-1.5 12.58333 0 9.61914.29446 12.48655 1.25 12.17246.6875-.22599 1.475-2.62208 1.75-5.32465z" fill="#ce2a2b"/><path d="m492.20493 383.25c1.21269-2.53786 1.82532-2.77261 7.94171-3.04312 6.58479-.29122 6.63451-.27344 7.68848 2.75.58346 1.67372 1.72062 3.04312 2.52701 3.04312 1.09643 0 .1895-3.1523-3.5963-12.5-3.54507-8.7533-5.54255-12.49215-6.66415-12.4738-1.09096.0178-2.98568 3.44563-5.94209 10.75-2.38722 5.89809-4.5772 11.5113-4.86663 12.4738-.84468 2.80906 1.472 2.01349 2.91197-1z" fill="#ce2a2b"/><path d="m496 375.62212c0-3.13288 2.74461-9.62212 4.06965-9.62212 1.43367 0 5.21728 8.80988 4.54076 10.57287-.34905.90961-2.00955 1.42713-4.57903 1.42713-3.57826 0-4.03138-.26727-4.03138-2.37788z" fill="#ce2a2b"/><path d="m501.28975 373c-.28766-1.1-.6797-2-.8712-2s-.82985.9-1.41855 2c-.89953 1.6808-.76049 2 .8712 2 1.44923 0 1.80894-.50715 1.41855-2z" fill="#fff"/><path d="m515.4382 386.69955c-.27447-.71525-.37284-7.35275-.21861-14.75l.28041-13.44955h3.48207c3.2468 0 3.83492.53761 8.70422 7.9567l5.22214 7.95669.29578-7.95669c.29562-7.95219.29743-7.95689 3.18728-8.28678 1.59032-.18154 3.20411.17574 3.58618.79395.54854.88756.5996 15.3651.0962 27.28613-.0558 1.32191-.93665 1.75-3.60076 1.75-3.29722 0-3.83442-.48488-8.25-7.4464-2.59772-4.09552-4.95431-7.47052-5.23687-7.5-.28256-.0295-.42051 2.0839-.30656 4.6964.35675 8.17878-.40921 10.25-3.79054 10.25-1.62356 0-3.17649-.5852-3.45096-1.30045z" fill="#ce2a2b"/><path d="m520 377c0-12.06395 1.51569-12.05889 9.20381.0307 7.92607 12.46381 8.79619 12.11455 8.79619-3.5307 0-10.44444-.24667-12.5-1.5-12.5-1.22222 0-1.5 1.66667-1.5 9 0 6.53992-.34168 8.99662-1.25 8.98765-.6875-.007-3.81838-4.05679-6.9575-9-3.15337-4.96564-6.39778-8.98765-7.25-8.98765-1.65586 0-1.79703 1.08021-2.02558 15.5-.13403 8.45591.0355 9.5 1.5421 9.5.51827 0 .94098-4.04298.94098-9z" fill="#ce2a2b"/><path d="m630.4382 386.69955c-.27447-.71525-.37284-7.35275-.21861-14.75l.28041-13.44955h8.67989c9.80574 0 12.95666 1.46832 16.01296 7.462l1.69286 3.31983.30714-5.39091.30715-5.39092h10.5 10.5v3 3l-6.75.29569c-5.86971.25713-6.75.54433-6.75 2.20228 0 1.64033.87283 1.94817 6.25 2.20431 6.2497.29771 6.25002.29788 6.56336 3.54772l.31336 3.25h-6.56336c-6.30167 0-6.56336.0979-6.56336 2.45431 0 2.33414.33049 2.46879 6.75 2.75l6.75.29569v3 3l-10.75.28383-10.75.28383-.00079-5.78383-.00079-5.78383-1.99614 4.03258c-2.92793 5.91495-6.24141 7.46742-15.93796 7.46742-5.74734 0-8.27321-.38079-8.62612-1.30045z" fill="#272e76"/><path d="m648.65738 383.9819c3.33646-2.08366 5.34262-6.39673 5.34262-11.48619 0-4.00689-.49875-5.19446-3.4-8.09571-3.22817-3.22817-3.75882-3.4-10.5-3.4h-7.1v12.63437 12.63436l6.77386-.48466c3.72562-.26657 7.72321-1.07754 8.88352-1.80217z" fill="#272e76"/><path d="m635.47968 382.80765c-.30939-.80627-.43139-5.48032-.2711-10.38679l.29142-8.92086 3.38837-.32368c6.8676-.65604 11.33484 2.18971 12.48792 7.95512.65354 3.26771-1.1626 8.61899-3.61551 10.65314-.85197.70651-3.83717 1.55557-6.6338 1.88679-3.94738.46751-5.2106.2743-5.6473-.86372z" fill="#272e76"/><path d="m646.54545 378.54545c5.14403-5.14402 1.12505-13.54545-6.47971-13.54545-1.91551 0-2.06574.5818-2.06574 8v8h3.04545c1.90012 0 3.96857-.92311 5.5-2.45455z" fill="#fff"/><path d="m676 385.04569c0-.52487-3.0375-1.08737-6.75-1.25l-6.75-.29569-.30479-4.75-.30479-4.75h6.55479c8.35396 0 8.60404-1.80695.30479-2.20228l-6.25-.29772v-4-4l6.75-.29569c9.46983-.41483 8.45507-2.20431-1.25-2.20431h-8v12.5 12.5h8c4.41132 0 8-.42809 8-.95431z" fill="#272e76"/><path d="m680.8611 386.75c-.39837-3.58501-.52488-25.49677-.15589-27 .35731-1.45564 1.58776-1.75 7.31512-1.75 8.34963 0 11.39883 1.2562 13.4278 5.53194 3.22106 6.78788-.8555 13.30879-8.88586 14.21393l-4.56227.51423v4.86995 4.86995h-3.5c-2.05925 0-3.55718-.51455-3.6389-1.25z" fill="#272e76"/><path d="m685.80226 380.1714.30226-5.1714h4.87516c4.07564 0 5.21506-.43211 6.94774-2.63486 2.62301-3.33462 2.63419-6.3852.0336-9.17658-1.6911-1.81521-3.14114-2.18856-8.49998-2.18856h-6.46104v12.58333c0 9.6197.2944 12.48632 1.25 12.1714.72872-.24015 1.37605-2.56853 1.55226-5.58333z" fill="#272e76"/><path d="m686 368v-5h4.3c4.93918 0 6.7 1.31405 6.7 5s-1.76082 5-6.7 5h-4.3z" fill="#272e76"/><path d="m692.84839 370.11486c2.2651-1.43546.92078-4.58182-2.10694-4.93128-2.46138-.2841-2.74145-.003-2.74145 2.75 0 3.17614 1.91736 4.03875 4.84839 2.18128z" fill="#fff"/><path d="m699 386.94354c0-1.46323 10.03389-26.15423 11.25405-27.69354.54496-.6875 2.00564-1.25 3.24595-1.25 3.06602 0 3.5003.69802 9.33244 15l5.09732 12.5.0504-12.5c.0277-6.875.43968-13.1144.91543-13.86534.64393-1.01641 2.79615-1.26783 8.4214-.98377 6.2983.31805 7.9832.78252 10.1197 2.78966 3.55845 3.34299 3.62837 10.16785.13731 13.40326l-2.42597 2.24831 2.92597 4.70099c1.60928 2.58554 2.92597 5.17819 2.92597 5.76144 0 .62915-1.72851.93538-4.25.75295-4.01891-.29078-4.41312-.60656-7.25-5.8075l-3-5.5-.29808 5.68874-.29807 5.68874-7.86943.0173c-7.82467.0172-7.87528.00048-8.8999-2.93875-.94031-2.69746-1.43318-2.95603-5.63449-2.95603-4.21653 0-4.69206.2525-5.64984 3-.92106 2.64213-1.5113 3-4.94799 3-2.14619 0-3.90217-.47541-3.90217-1.05646z" fill="#272e76"/><path d="m705.6939 383c1.10156-2.91837 1.31302-3 7.77126-3 6.47746 0 6.66431.0729 7.68468 3 .5752 1.65 1.67315 3 2.43989 3 1.17592 0 1.16168-.58682-.091-3.75-.8168-2.0625-2.96886-7.575-4.78236-12.25-4.28846-11.05516-5.74356-11.20259-9.86978-1-6.84181 16.91722-6.86884 17-5.55123 17 .6964 0 1.77574-1.35 2.39855-3z" fill="#272e76"/><path d="m709.3738 376.53171c-.76147-1.98435 2.58729-10.53171 4.1262-10.53171s4.88767 8.54736 4.1262 10.53171c-.34953.91088-1.91599 1.46829-4.1262 1.46829s-3.77667-.55741-4.1262-1.46829z" fill="#272e76"/><path d="m714.92971 374.25c-.14357-1.53206-1.79173-4.70689-1.85942-3.58179-.0387.64252-.34343 1.88002-.67728 2.75-.39831 1.03799-.0545 1.58179 1 1.58179.88385 0 1.57536-.3375 1.5367-.75z" fill="#fff"/><path d="m734 379.92236c.41982-4.55284.81494-5.42236 2.464-5.42236 1.34125 0 2.93674 1.74156 5.03177 5.49242 1.68727 3.02084 3.85352 5.64375 4.81388 5.8287 1.41835.27315 1.17774-.55996-1.28177-4.43821-3.5539-5.60393-3.73868-7.02253-1.02682-7.88325 4.19795-1.33237 4.98569-7.37006 1.42601-10.92973-1.10096-1.10096-3.49028-1.56993-7.9985-1.56993h-6.42857v12.58333c0 9.61919.29445 12.48653 1.25 12.17236.70516-.23185 1.46794-2.77442 1.75-5.83333z" fill="#272e76"/><path d="m733.60052 369.68411c-1.04328-5.56116-.032-6.8287 5.17309-6.48375 5.42389.35944 7.13156 2.31648 5.66902 6.49687-.85738 2.45065-1.55978 2.84044-5.59095 3.10263-4.5338.29489-4.62103.24313-5.25116-3.11575z" fill="#272e76"/><path d="m740.84839 370.11486c2.2651-1.43546.92078-4.58182-2.10694-4.93128-2.46138-.2841-2.74145-.003-2.74145 2.75 0 3.17614 1.91736 4.03875 4.84839 2.18128z" fill="#fff"/><g fill="#272e76"><path d="m758.78275 376.75-.28275-11.25-3.8086-.31386c-3.62504-.29873-3.79372-.46741-3.5-3.5l.3086-3.18614h11 11l.31336 3.25c.30708 3.18486.23191 3.25-3.75 3.25h-4.06336v11.5 11.5h-3.46725-3.46725z"/><path d="m764 374.5v-11.5h3.5c1.925 0 3.5-.45 3.5-1 0-.59259-3.66667-1-9-1s-9 .40741-9 1c0 .55 1.8 1 4 1h4v11.5c0 9.55556.25362 11.5 1.5 11.5s1.5-1.94444 1.5-11.5z"/><path d="m775.22291 373.31198.27709-14.81198h3.85943 3.85943l3.68767 9.26515 3.68766 9.26515 3.34198-8.26515c4.16387-10.29779 4.67695-10.9372 8.47866-10.56622l3.08517.30107.27673 14.75.27674 14.75h-3.52674-3.52673l-.0487-6.25-.0487-6.25-2.55712 6.25c-2.32262 5.67686-2.82771 6.25-5.50787 6.25-2.5945 0-3.23451-.63383-5.30113-5.25l-2.35039-5.25-.34301 5c-.3425 4.99239-.34877 5.00047-4.12011 5.31198l-3.77709.31198.27709-14.81198z"/><path d="m781.69614 370.18467c.93336.18245 2.91755 3.44116 4.7085 7.73295 1.70245 4.07968 3.58356 7.57992 4.18024 7.77829.59669.19837 2.45088-3.13955 4.12044-7.41762 1.83801-4.70973 3.67842-7.90584 4.66511-8.10161 1.39933-.27765 1.62957.82912 1.62957 7.83333 0 6.08001.31824 8.05099 1.25 7.74162.88806-.29486 1.33147-3.9597 1.53137-12.65699.27645-12.02787.24382-12.2363-1.86574-11.9183-1.68773.25441-2.95418 2.35625-5.91918 9.82366-2.19265 5.52223-4.41373 9.62895-5.30453 9.80797-1.11279.22363-2.58129-2.44612-5.3622-9.74854-2.83694-7.44957-4.28337-10.05689-5.57972-10.05797-1.56816-.001-1.75 1.22814-1.75 11.83187 0 13.53571 1.35301 17.45528 1.7915 5.18983.24571-6.87315.54486-8.1043 1.90464-7.83849z"/><path d="m808.4382 386.69955c-.27447-.71525-.37284-7.35275-.21861-14.75l.28041-13.44955h10.5 10.5l.31336 3.25.31336 3.25h-7.06336c-6.33915 0-7.06336.20017-7.06336 1.95228 0 1.69638.81925 1.99131 6.25 2.25 6.2497.29771 6.25002.29788 6.56336 3.54772l.31336 3.25h-6.56336c-6.30167 0-6.56336.0979-6.56336 2.45431 0 2.33414.33049 2.46879 6.75 2.75l6.75.29569.31336 3.25.31336 3.25h-10.59475c-7.77251 0-10.72767-.34641-11.09377-1.30045z"/><path d="m827.5 385c.38938-.63003-1.95315-1-6.33158-1h-6.94961l-.37629-3.25c-.73489-6.34709-.33312-6.75 6.7308-6.75 8.23633 0 8.41543-1.8092.21803-2.20228-5.68373-.27255-6.26017-.50909-6.81791-2.79772-1.24908-5.12545-.28938-6 6.58417-6 3.4784 0 6.60247-.45 6.94239-1 .39364-.63692-2.48962-1-7.94098-1h-8.55902v11.83333c0 6.50834.3 12.13334.66667 12.5 1.06569 1.06569 15.15197.76914 15.83333-.33333z"/><path d="m832.22327 373.25.27673-14.75 3.19297-.30911c2.99272-.28971 3.53865.20722 8.70481 7.92361l5.51184 8.23271.29519-7.92361.29519-7.9236 3.25-.31336 3.25-.31336v15.12373 15.12372l-3.7395-.31036c-3.46096-.28725-4.13082-.90628-8.99286-8.31037l-5.25335-8-.007 8.25-.007 8.25h-3.52673-3.52674l.27674-14.75z"/><path d="m837 377c0-7.26335.28446-9 1.47421-9 .81081 0 4.19742 4.05 7.52579 9s6.71498 9 7.52579 9c1.22032 0 1.47421-2.15276 1.47421-12.5 0-10.44444-.24667-12.5-1.5-12.5-1.22222 0-1.5 1.66667-1.5 9 0 6.5417-.34143 8.99571-1.25 8.98431-.6875-.009-3.8954-4.05863-7.12868-9-3.93735-6.01742-6.49664-8.98431-7.75-8.98431-1.72862 0-1.87132.95317-1.87132 12.5 0 10.44444.24667 12.5 1.5 12.5 1.22222 0 1.5-1.66667 1.5-9z"/><path d="m866.66667 387.33333c-.36667-.36666-.66667-5.54166-.66667-11.5v-10.83333h-3.44098c-3.98201 0-4.99501-1.12676-4.12596-4.58933.6205-2.47226.63678-2.47528 11.84415-2.19317l11.22279.2825v3c0 2.74482-.31897 3.0264-3.75 3.31037l-3.75.31036v11.43964 11.43963h-3.33333c-1.83334 0-3.63334-.3-4-.66667z"/><path d="m871.21725 374.75.28275-11.25 3.75-.31037c7.37065-.61002 3.58328-2.18963-5.25-2.18963s-12.62065 1.57961-5.25 2.18963l3.75.31037.28275 11.25c.15551 6.1875.70328 11.25 1.21725 11.25s1.06174-5.0625 1.21725-11.25z"/><path d="m430.25845 336.75c.26249-1.7875 4.98367-14.725 10.49151-28.75s11.60621-29.55 13.55194-34.5c2.80668-7.1403 21.21163-54.46275 23.40223-60.17136.40033-1.04324 4.78296-1.32864 20.40286-1.32864 18.30587 0 19.88739.13962 19.82262 1.75-.0387.9625-7.81273 21.55-17.27559 45.75l-17.20519 44 27.46222.26615c26.79971.25972 27.57213.21148 32.01893-2 2.62075-1.30336 5.73327-3.96559 7.32598-6.26615 3.70447-5.35085 33.74404-82.72512 33.74404-86.91606 0-6.91681 3.3803-6.58394-66.86013-6.58394-55.13919 0-63.27577-.19057-63.77583-1.4937-.31525-.82154 2.91909-8.93059 7.18743-18.02011 5.78968-12.32925 8.29242-16.65944 9.85458-17.0502 1.15167-.28809 32.46895-.35666 69.59395-.15239 61.64908.33921 67.99618.52782 73.22423 2.17592 6.59315 2.07843 12.79554 6.95503 15.14616 11.90859 2.12609 4.4804 2.14148 16.5305.0303 23.70039-3.38028 11.47983-37.69923 97.80309-41.69499 104.8764-7.20828 12.76007-18.98143 23.08071-31.7057 27.79399-10.30445 3.81694-17.86706 4.26111-72.55096 4.26111h-52.66785z"/><path d="m720.70179 334.14759c5.78662-2.61688 13.51183-10.18116 17.51241-17.14759 1.42131-2.475 10.2391-24.3 19.5951-48.5s17.94479-46.3625 19.08621-49.25l2.07531-5.25h-17.86955-17.86955l-2.53231 6.75c-12.72941 33.93086-30.98092 78.92075-32.80372 80.86103-1.23595 1.31561-3.85559 2.83882-5.82143 3.38491-4.88213 1.35622-53.91574 1.30388-57.83314-.0617-6.00867-2.09463-6.59681-.0477 18.22628-63.43421 2.36926-6.05 6.63779-16.94728 9.48562-24.21617 3.80627-9.71528 5.97553-13.88736 8.18914-15.75l3.01129-2.53386h50.84174 50.84175l2.15721-6.48243c2.93325-8.8144 3.06513-14.61531.41371-18.19719-4.40589-5.95206-3.02793-5.82038-60.90786-5.82038-60.83529 0-59.29927-.19193-68.93355 8.61327-8.72425 7.97347-7.08249 4.37351-35.52034 77.88673-7.76581 20.075-16.3122 42.125-18.99197 49-5.87174 15.06403-6.82364 20.22257-4.67888 25.3557 1.14048 2.72956 2.68118 4.22782 5.8371 5.67634 4.11761 1.88992 6.40926 1.95805 57.78764 1.71796l53.5-.25z"/><path d="m818.28932 335.75c3.60651-8.95724 46.10049-118.72174 46.45652-120 .45085-1.6187-.82909-1.75-17.0588-1.75h-17.54622l-6.18508 15.75c-3.40179 8.6625-11.49396 29.475-17.98259 46.25-6.48864 16.775-14.31204 36.94697-17.38533 44.82659-3.0733 7.87963-5.58782 14.74213-5.58782 15.25 0 1.50757 34.68005 1.18662 35.28932-.32659z"/><path d="m948.49558 190.25c7.74022-13.89897 11.50442-20.97895 11.50442-21.63832 0-.33642-34.61217-.61168-76.91593-.61168h-76.91594l-4.72069 12.25c-2.59638 6.7375-5.31125 13.7125-6.03304 15.5l-1.31235 3.25h74.76037 74.76037z"/></g></svg>